<?xml version="1.0" encoding="UTF-8"?>
<svg width="50px" height="50px" viewBox="0 0 50 50" version="1.1" xmlns="http://www.w3.org/2000/svg" xmlns:xlink="http://www.w3.org/1999/xlink">
    <!-- Generator: Sketch 47.1 (45422) - http://www.bohemiancoding.com/sketch -->
    <title>icon_Call Tracking &amp; Analytics</title>
    <desc>Created with Sketch.</desc>
    <defs></defs>
    <g id="Page-1" stroke="none" stroke-width="1" fill="none" fill-rule="evenodd">
        <g id="001-Fone-Dynamics-Homepage---@2560" transform="translate(-1183.000000, -1605.000000)">
            <g id="#3-Body-1" transform="translate(7.000000, 1407.000000)">
                <g id="Card" transform="translate(1156.000000, 178.000000)">
                    <g id="Group-77">
                        <g id="Group-73" transform="translate(20.000000, 20.000000)">
                            <g id="icon_Call-Tracking-&amp;-Analytics">
                                <rect id="Rectangle-13" fill="#EECAFF" x="0" y="0" width="50" height="50" rx="25"></rect>
                                <g id="Group-56" transform="translate(14.000000, 15.000000)">
                                    <path d="M1.60661038,0.894402336 L7.07142857,0 L7.07142857,18.1703803 L1.9518626,18.8406975 C1.02181446,18.962471 0.15616473,18.3948489 0.01837982,17.572878 C0.006143188,17.4998791 2.42843807e-16,17.4261834 2.32618158e-16,17.3523877 L0,2.6014031 C-3.03851613e-16,1.76453889 0.675540838,1.04678632 1.60661038,0.894402336 Z" id="Rectangle-14" fill="#E28DFF"></path>
                                    <polygon id="Rectangle-14-Copy" fill="#AC5FCF" points="7.07142857 0 14.1428571 0.785714286 14.1428571 18.8571429 7.07142857 18.1630149"></polygon>
                                    <path d="M14.1428571,0.771098827 L19.1894033,0.0216508532 C20.1338222,-0.118602056 21.0294329,0.437252131 21.1898059,1.26318593 C21.2060969,1.34708565 21.2142857,1.4320355 21.2142857,1.51713628 L21.2142857,16.5259622 C21.2142857,17.2657257 20.604114,17.8976003 19.7701654,18.0214476 L14.1428571,18.8571429 L14.1428571,0.771098827 Z" id="Rectangle-14-Copy-2" fill="#E28DFF"></path>
                                    <path d="M18.4642857,22 C16.1071429,19.9648106 14.9285714,18.2842551 14.9285714,16.9583333 C14.9285714,14.9694508 16.5115646,13.3571429 18.4642857,13.3571429 C20.4170068,13.3571429 22,14.9694508 22,16.9583333 C22,18.2842551 20.8214286,19.9648106 18.4642857,22 Z M18.4642857,18.5428571 C19.4406463,18.5428571 20.2321429,17.7689494 20.2321429,16.8142857 C20.2321429,15.8596221 19.4406463,15.0857143 18.4642857,15.0857143 C17.4879252,15.0857143 16.6964286,15.8596221 16.6964286,16.8142857 C16.6964286,17.7689494 17.4879252,18.5428571 18.4642857,18.5428571 Z" id="Combined-Shape" fill="#AC5FCF"></path>
                                </g>
                            </g>
                        </g>
                    </g>
                </g>
            </g>
        </g>
    </g>
</svg>
